<mxfile host="app.diagrams.net" modified="2022-03-18T11:04:46.697Z" agent="5.0 (Macintosh; Intel Mac OS X 10_15_7) AppleWebKit/537.36 (KHTML, like Gecko) Chrome/99.0.4844.74 Safari/537.36" etag="AZK23j0PtPWOZX84NqIf" version="14.9.6" type="github">
  <diagram name="Page-1" id="e3a06f82-3646-2815-327d-82caf3d4e204">
    <mxGraphModel dx="1554" dy="888" grid="1" gridSize="10" guides="1" tooltips="1" connect="1" arrows="1" fold="1" page="1" pageScale="1.5" pageWidth="1169" pageHeight="826" background="none" math="0" shadow="0">
      <root>
        <mxCell id="0" style=";html=1;" />
        <mxCell id="1" style=";html=1;" parent="0" />
        <mxCell id="6a7d8f32e03d9370-62" value="Citrix Network Architecture" style="text;strokeColor=none;fillColor=none;html=1;fontSize=24;fontStyle=1;verticalAlign=middle;align=center;" parent="1" vertex="1">
          <mxGeometry x="499" y="30" width="861" height="40" as="geometry" />
        </mxCell>
        <mxCell id="TavnBfJb9h60bkHmwWds-1" value="Garázs" style="rounded=0;whiteSpace=wrap;html=1;" parent="1" vertex="1">
          <mxGeometry x="140" y="170" width="250" height="390" as="geometry" />
        </mxCell>
        <mxCell id="TavnBfJb9h60bkHmwWds-2" value="Nappali" style="whiteSpace=wrap;html=1;aspect=fixed;" parent="1" vertex="1">
          <mxGeometry x="727.2" y="180" width="390" height="390" as="geometry" />
        </mxCell>
        <mxCell id="TavnBfJb9h60bkHmwWds-3" value="Folyosó&lt;br&gt;" style="rounded=0;whiteSpace=wrap;html=1;" parent="1" vertex="1">
          <mxGeometry x="1140" y="180" width="580" height="180" as="geometry" />
        </mxCell>
        <mxCell id="TavnBfJb9h60bkHmwWds-5" value="Padlás" style="shape=ext;double=1;rounded=1;whiteSpace=wrap;html=1;" parent="1" vertex="1">
          <mxGeometry x="420" y="250" width="250" height="150" as="geometry" />
        </mxCell>
        <mxCell id="TavnBfJb9h60bkHmwWds-26" style="edgeStyle=orthogonalEdgeStyle;rounded=0;orthogonalLoop=1;jettySize=auto;html=1;exitX=0.95;exitY=0.05;exitDx=0;exitDy=0;exitPerimeter=0;" parent="1" source="TavnBfJb9h60bkHmwWds-6" target="TavnBfJb9h60bkHmwWds-7" edge="1">
          <mxGeometry relative="1" as="geometry" />
        </mxCell>
        <mxCell id="TavnBfJb9h60bkHmwWds-6" value="16 port switch" style="fontColor=#0066CC;verticalAlign=top;verticalLabelPosition=bottom;labelPosition=center;align=center;html=1;outlineConnect=0;fillColor=#CCCCCC;strokeColor=#6881B3;gradientColor=none;gradientDirection=north;strokeWidth=2;shape=mxgraph.networks.switch;" parent="1" vertex="1">
          <mxGeometry x="495" y="340" width="100" height="30" as="geometry" />
        </mxCell>
        <mxCell id="TavnBfJb9h60bkHmwWds-7" value="Telekom modem/wifi router" style="fontColor=#0066CC;verticalAlign=top;verticalLabelPosition=bottom;labelPosition=center;align=center;html=1;outlineConnect=0;fillColor=#CCCCCC;strokeColor=#6881B3;gradientColor=none;gradientDirection=north;strokeWidth=2;shape=mxgraph.networks.wireless_modem;" parent="1" vertex="1">
          <mxGeometry x="980" y="210" width="90" height="80" as="geometry" />
        </mxCell>
        <mxCell id="TavnBfJb9h60bkHmwWds-9" value="Wifi erősítő" style="fontColor=#0066CC;verticalAlign=top;verticalLabelPosition=bottom;labelPosition=center;align=center;html=1;outlineConnect=0;fillColor=#CCCCCC;strokeColor=#6881B3;gradientColor=none;gradientDirection=north;strokeWidth=2;shape=mxgraph.networks.wireless_modem;" parent="1" vertex="1">
          <mxGeometry x="1170" y="260" width="90" height="75" as="geometry" />
        </mxCell>
        <mxCell id="TavnBfJb9h60bkHmwWds-10" value="NAS, Stb" style="fontColor=#0066CC;verticalAlign=top;verticalLabelPosition=bottom;labelPosition=center;align=center;html=1;outlineConnect=0;fillColor=#CCCCCC;strokeColor=#6881B3;gradientColor=none;gradientDirection=north;strokeWidth=2;shape=mxgraph.networks.storage;" parent="1" vertex="1">
          <mxGeometry x="280" y="210" width="100" height="100" as="geometry" />
        </mxCell>
        <mxCell id="TavnBfJb9h60bkHmwWds-11" value="" style="points=[];aspect=fixed;html=1;align=center;shadow=0;dashed=0;image;image=img/lib/allied_telesis/security/Surveillance_Camera_Ceiling.svg;" parent="1" vertex="1">
          <mxGeometry x="720" y="580" width="37.2" height="35.4" as="geometry" />
        </mxCell>
        <mxCell id="TavnBfJb9h60bkHmwWds-12" value="" style="points=[];aspect=fixed;html=1;align=center;shadow=0;dashed=0;image;image=img/lib/allied_telesis/security/Surveillance_Camera_Ceiling.svg;" parent="1" vertex="1">
          <mxGeometry x="782.8" y="580" width="37.2" height="35.4" as="geometry" />
        </mxCell>
        <mxCell id="TavnBfJb9h60bkHmwWds-13" value="" style="points=[];aspect=fixed;html=1;align=center;shadow=0;dashed=0;image;image=img/lib/allied_telesis/security/Surveillance_Camera_Ceiling.svg;" parent="1" vertex="1">
          <mxGeometry x="720" y="134.60000000000002" width="37.2" height="35.4" as="geometry" />
        </mxCell>
        <mxCell id="TavnBfJb9h60bkHmwWds-15" value="" style="points=[];aspect=fixed;html=1;align=center;shadow=0;dashed=0;image;image=img/lib/allied_telesis/security/Surveillance_Camera_Ceiling.svg;" parent="1" vertex="1">
          <mxGeometry x="820" y="134.60000000000002" width="37.2" height="35.4" as="geometry" />
        </mxCell>
        <mxCell id="TavnBfJb9h60bkHmwWds-20" value="" style="endArrow=classic;startArrow=classic;html=1;" parent="1" source="TavnBfJb9h60bkHmwWds-11" target="TavnBfJb9h60bkHmwWds-6" edge="1">
          <mxGeometry width="50" height="50" relative="1" as="geometry">
            <mxPoint x="1020" y="550" as="sourcePoint" />
            <mxPoint x="1070" y="500" as="targetPoint" />
          </mxGeometry>
        </mxCell>
        <mxCell id="TavnBfJb9h60bkHmwWds-21" value="" style="endArrow=classic;startArrow=classic;html=1;" parent="1" source="TavnBfJb9h60bkHmwWds-12" target="TavnBfJb9h60bkHmwWds-6" edge="1">
          <mxGeometry width="50" height="50" relative="1" as="geometry">
            <mxPoint x="738.0575848732274" y="590" as="sourcePoint" />
            <mxPoint x="618.9342501074343" y="390" as="targetPoint" />
          </mxGeometry>
        </mxCell>
        <mxCell id="TavnBfJb9h60bkHmwWds-22" value="" style="endArrow=classic;startArrow=classic;html=1;" parent="1" source="TavnBfJb9h60bkHmwWds-15" edge="1">
          <mxGeometry width="50" height="50" relative="1" as="geometry">
            <mxPoint x="1090" y="599.6460165732799" as="sourcePoint" />
            <mxPoint x="628.9342501074343" y="400" as="targetPoint" />
          </mxGeometry>
        </mxCell>
        <mxCell id="TavnBfJb9h60bkHmwWds-23" value="" style="endArrow=classic;startArrow=classic;html=1;" parent="1" source="TavnBfJb9h60bkHmwWds-13" target="TavnBfJb9h60bkHmwWds-6" edge="1">
          <mxGeometry width="50" height="50" relative="1" as="geometry">
            <mxPoint x="1080" y="172.32297865585338" as="sourcePoint" />
            <mxPoint x="638.9342501074343" y="410" as="targetPoint" />
          </mxGeometry>
        </mxCell>
        <mxCell id="TavnBfJb9h60bkHmwWds-24" value="" style="endArrow=classic;startArrow=classic;html=1;" parent="1" source="TavnBfJb9h60bkHmwWds-6" target="TavnBfJb9h60bkHmwWds-10" edge="1">
          <mxGeometry width="50" height="50" relative="1" as="geometry">
            <mxPoint x="741.7545061191367" y="180" as="sourcePoint" />
            <mxPoint x="648.9342501074343" y="420" as="targetPoint" />
          </mxGeometry>
        </mxCell>
        <mxCell id="TavnBfJb9h60bkHmwWds-36" value="" style="endArrow=classic;startArrow=classic;html=1;dashed=1;" parent="1" source="TavnBfJb9h60bkHmwWds-7" edge="1">
          <mxGeometry width="50" height="50" relative="1" as="geometry">
            <mxPoint x="1120" y="360" as="sourcePoint" />
            <mxPoint x="1170" y="310" as="targetPoint" />
          </mxGeometry>
        </mxCell>
        <mxCell id="TavnBfJb9h60bkHmwWds-38" value="Szoba1" style="whiteSpace=wrap;html=1;aspect=fixed;" parent="1" vertex="1">
          <mxGeometry x="350" y="690" width="230" height="230" as="geometry" />
        </mxCell>
        <mxCell id="TavnBfJb9h60bkHmwWds-39" value="Szoba2" style="whiteSpace=wrap;html=1;aspect=fixed;" parent="1" vertex="1">
          <mxGeometry x="610" y="690" width="230" height="230" as="geometry" />
        </mxCell>
        <mxCell id="TavnBfJb9h60bkHmwWds-40" value="Szoba3" style="whiteSpace=wrap;html=1;aspect=fixed;" parent="1" vertex="1">
          <mxGeometry x="870" y="690" width="230" height="230" as="geometry" />
        </mxCell>
        <mxCell id="TavnBfJb9h60bkHmwWds-41" value="" style="endArrow=classic;startArrow=classic;html=1;exitX=0.435;exitY=-0.009;exitDx=0;exitDy=0;exitPerimeter=0;" parent="1" source="TavnBfJb9h60bkHmwWds-38" target="TavnBfJb9h60bkHmwWds-6" edge="1">
          <mxGeometry width="50" height="50" relative="1" as="geometry">
            <mxPoint x="1020" y="550" as="sourcePoint" />
            <mxPoint x="1070" y="500" as="targetPoint" />
          </mxGeometry>
        </mxCell>
        <mxCell id="TavnBfJb9h60bkHmwWds-44" value="" style="endArrow=classic;startArrow=classic;html=1;entryX=0.1;entryY=1;entryDx=0;entryDy=0;entryPerimeter=0;" parent="1" source="TavnBfJb9h60bkHmwWds-39" target="TavnBfJb9h60bkHmwWds-6" edge="1">
          <mxGeometry width="50" height="50" relative="1" as="geometry">
            <mxPoint x="460.0500000000002" y="697.9300000000001" as="sourcePoint" />
            <mxPoint x="550.722073709188" y="380" as="targetPoint" />
          </mxGeometry>
        </mxCell>
        <mxCell id="TavnBfJb9h60bkHmwWds-45" value="" style="endArrow=classic;startArrow=classic;html=1;exitX=0.348;exitY=0;exitDx=0;exitDy=0;exitPerimeter=0;entryX=0.9;entryY=1;entryDx=0;entryDy=0;entryPerimeter=0;" parent="1" source="TavnBfJb9h60bkHmwWds-40" target="TavnBfJb9h60bkHmwWds-6" edge="1">
          <mxGeometry width="50" height="50" relative="1" as="geometry">
            <mxPoint x="470.0500000000002" y="707.9300000000001" as="sourcePoint" />
            <mxPoint x="560.722073709188" y="390" as="targetPoint" />
          </mxGeometry>
        </mxCell>
      </root>
    </mxGraphModel>
  </diagram>
</mxfile>
